<?xml version="1.0" encoding="UTF-8"?><svg id="Layer_1" xmlns="http://www.w3.org/2000/svg" width="1717" height="735.36" viewBox="0 0 1717 735.36"><defs><style>.cls-1{fill:#f4b41d;}.cls-2{fill:#faca02;}.cls-3{fill:#eeeac9;}.cls-4{fill:#fdcd8b;}.cls-5{fill:#f2a141;}.cls-6{fill:#ffd830;}.cls-7{fill:#fe4e3f;}.cls-8{fill:#ffb88d;}.cls-9{fill:#ffb44e;}.cls-10{fill:#fecba5;}.cls-11{fill:#fdf4c3;}.cls-12{fill:#665c1a;}.cls-13{fill:#82431b;}.cls-14{fill:#7f7226;}.cls-15{fill:#b47332;}.cls-16{fill:#8e8329;}.cls-17{fill:#86481c;}.cls-18{fill:#a5672f;}.cls-19{fill:#c7c59f;}.cls-20{fill:#975627;}.cls-21{fill:#bf272d;stroke:#665c1a;stroke-miterlimit:10;}</style></defs><g id="ost"><path class="cls-6" d="m1111.1,226.76l-3.03-.72s-.04-.01-.06-.01l-.2-.05s-.03-.01-.04-.01l-.19-.03s-.05-.01-.08-.02c-37.05-7.75-345.74-64.09-384.86-70.51-.3-.07-.61-.13-.95-.15-.03-.01-.05-.01-.08-.01-6.86-.5-8.72,2.97-9.12,3.98.13-1.41,1.21-3.44,1.59-3.79,6.84-6.1,74.28-65.72,126.43-86.58,55-22,75-21,75-21l110.11,96.96,84.58,81.28s.04.02.05.02l.41.24c.17.12.32.25.44.4Z"/><path class="cls-2" d="m1112.62,229.82c0,1.68-7.05,138.7-9.31,182.62-.36,6.99-6.93,11.98-13.77,10.45l-375.44-84.05c-8.09-1.81-14-8.76-14.49-17.03-1.82-30.99-4.06-106.95,12.79-162.32,0,0,0-.01.02-.04,0-.01,0-.02.01-.04v-.02s.02-.04.03-.07h0s.02-.06.03-.09c.4-1.01,2.26-4.48,9.12-3.98.03,0,.05,0,.08.01.29.05.61.1.95.15,39.12,6.42,347.81,62.76,384.86,70.51.03.01.06.01.08.02.15.03.29.06.43.09.02,0,.04.01.06.01l3.03.72s1.52,1.06,1.52,3.06Z"/><ellipse class="cls-1" cx="896.67" cy="248.07" rx="20.95" ry="20.75"/><ellipse class="cls-1" cx="773.17" cy="278.07" rx="16.45" ry="16.75"/><ellipse class="cls-1" cx="1011.17" cy="277.57" rx="13.45" ry="13.25"/><ellipse class="cls-1" cx="875.67" cy="251.82" rx="14.95" ry="16" transform="translate(-34.2 203.44) rotate(-13)"/><ellipse class="cls-1" cx="981.67" cy="345.57" rx="20.95" ry="19.25"/><ellipse class="cls-1" cx="894.67" cy="106.57" rx="20.95" ry="17.25" transform="translate(-1.04 203.99) rotate(-13)"/><ellipse class="cls-1" cx="946.62" cy="147.07" rx="14" ry="12.75" transform="translate(-10.19 99.75) rotate(-6)"/></g><g id="brød"><path class="cls-17" d="m703.62,316.36c0,89.19-146.85,161.5-328,161.5S47.62,405.55,47.62,316.36c0-26.68,6.62-57.93,22.71-88.63.03-.05.05-.1.07-.14t0-.02c.03-.07.05-.11.05-.11,0,0,0-.01,0-.02,17.34-33,45.62-65.34,88.36-90.66.02-.02.05-.03.08-.05,50.08-29.66,120.01-49.69,215.44-49.86.42-.01.85-.01,1.27-.01,16.42,0,32.14.66,47.16,1.93.44.03.87.06,1.3.1,71.63,6.21,127.55,26.09,169.91,52.85,34.35,21.71,59.78,47.95,77.45,75.1,22.22,34.12,32.18,69.68,32.18,99.52Z"/><path class="cls-20" d="m675.62,292.86c-9,31-74,121-293,121-206.12,0-269.19-58.74-301-107-27.53-41.77-12.84-75.79-11.29-79.13.03-.05.05-.1.07-.14t0-.02c.03-.07.05-.11.05-.11,0,0,0-.01,0-.02,17.34-33,45.62-65.34,88.36-90.66.02-.02.05-.03.08-.05,50.08-29.66,120.01-49.69,215.44-49.86.42-.01.85-.01,1.27-.01,16.42,0,32.14.66,47.16,1.93.44.03.87.06,1.3.1,71.63,6.21,127.55,26.09,169.91,52.85,34.35,21.71,59.78,47.95,77.45,75.1,8.32,22.09,12.31,48.03,4.18,76.02Z"/><path class="cls-18" d="m640.62,230.86c-.82,79.52-120.21,144-268.5,144S103.62,310.39,103.62,230.86c0-39.31,20.58-70.74,55.21-94.08.02-.02.05-.03.08-.05,8.45-5,17.46-9.73,27.07-14.14,3.14-1.44,6.35-2.85,9.62-4.22,4.04-1.69,8.17-3.33,12.41-4.9,1.64-.62,3.3-1.23,4.98-1.81,43.14-15.34,96.33-24.67,161.36-24.79,16.53.05,32.72.69,48.43,1.92.44.03.87.06,1.3.1,40.23,3.49,75.5,11.29,106.2,22.2,4.27,1.51,8.45,3.09,12.55,4.73h.02c4.7,1.88,9.29,3.83,13.76,5.86.75.34,1.5.68,2.25,1.03,12.62,5.82,24.32,12.2,35.13,19.03,29.72,22.59,47.01,52.24,46.63,89.12Z"/><path class="cls-15" d="m532.62,275.86c-37-7.04-167-93.04-167-93.04-9,13-175.44,99.54-175.44,99.54.5-34.11,83.71-97.07,98.21-108.72,1.44-1.16,2.23-1.78,2.23-1.78,0-6.36-75.13-37.87-104.64-49.27,3.14-1.44,6.35-2.85,9.62-4.22,4.04-1.69,8.17-3.33,12.41-4.9,1.64-.62,3.3-1.23,4.98-1.81,46.04,4.56,152.63,24.16,152.63,24.16,25-8.04,123.2-21.06,164.66-24.73,4.27,1.51,8.45,3.09,12.55,4.73h.02c4.7,1.88,9.29,3.83,13.76,5.86.75.34,1.5.68,2.25,1.03-36.53,7.6-122.24,50.11-122.24,50.11,58,46,96,103.04,96,103.04Z"/><path class="cls-13" d="m403.94,165.86c22.31,10,111.68,94,111.68,94-11-3-151-87-151-87-10,8-154,90-154,90,28-41,118-97,118-97-21.78-11.57-94.71-35.34-133.02-47.49,4.04-1.69,8.17-3.33,12.41-4.9,55.99,10.15,157.61,40.39,157.61,40.39,5-8,177.21-38.04,177.21-38.04h.02c4.7,1.88,9.29,3.83,13.76,5.86-30.01-3.19-152.67,44.18-152.67,44.18Z"/></g><g id="Brie"><path class="cls-3" d="m859.62,346.96l-369.26,88.01s-.03.01-.04.01l-.2.05-3.09.73s-.03.04-.04.06h-.01c-.22.3-.35.64-.36,1.02v.04c.01,11.91.11,124.09,2,125.98,2,2,4,2,11,2,16.69,0,311.98-49.01,354.83-56.14,3.14-.52,5.61-2.92,6.23-6.04,4.95-24.97,24.54-132.69-1.06-155.72Zm-346,109.9s6-7,11-3-4,7-4,9-9,5-9,2,0-7,2-8Zm12,88c-4,3-7,0-11,0s-16,5-16,0,1-9,4-9c3.61,0,15-5,19-2s8,8,4,11Zm35-42c-2,2-11.08,4.46-22-1-8-4-9-8-9-12s11-6,18-1c8.76,6.26,33,0,36,3s2,6-2,7-19,2-21,4Zm33,22c-3,2-15,8-11-4,.89-2.68,17-3,17,0s-3,2-6,4Zm7-59c-3,2-12,6-17,4s-16,1-13-9c1.15-3.83,3-4,8-4s14-4,19-2,6,9,3,11Zm53,1c0-2-1-5,0-6,2.92-2.92,5-4,7-4s10,1,9,3,0,4,0,6-3,3-6,3-10,0-10-2Zm44,46c-5,2-19,6-25,5s-20-1-14-9,8-2,11-2,8-3,8-3c9-3,9-13,17-10s8,17,3,19Zm17-90c-3,0-.34,3.89-2,5-3,2-12,2-17,2s-11.86.42-13-3c-1-3,18-7,21-7s4-2,7-3c3.42-1.14,6-2,9,1s-.88,5-5,5Zm53,27c-13-2-9,8-17,5s-5-9-5-9c3-4,17,1,21-2s17-8,20-2-6,10-19,8Zm49-46c-7,3-3,5-9,7s-33-2-32-6,6-6,19-7c5.08-.39,19-9,24-7s5,10-2,13Zm12.31,35.18c-2.69-.81-.97-11.01,4.69-8.18,4,2,5,6,5,9s-7,0-9.69-.82Zm9.69-62.18c-5,0-3.66-7.41,2-6,4,1,3,6-2,6Z"/><path class="cls-11" d="m487.03,435.76s-.03.04-.04.06h-.01c-.09-.03.05-.06.05-.06Z"/><path class="cls-11" d="m859.62,346.96l-369.26,88.01s-.03.01-.04.01l-.2.05-3.09.73c.12-.15.27-.28.44-.4l.41-.24s.03-.01.05-.02l241.69-141.24s20-1,75,21,55,32.1,55,32.1Z"/><path class="cls-19" d="m581.62,498.86c-4,1-19,2-21,4s-11.08,4.46-22-1c-8-4-9-8-9-12s11-6,18-1c8.76,6.26,33,0,36,3s2,6-2,7Z"/><path class="cls-19" d="m520.62,462.86c0,2-9,5-9,2s0-7,2-8c0,0,6-7,11-3s-4,7-4,9Z"/><path class="cls-19" d="m600.62,465.86c-3,2-12,6-17,4s-16,1-13-9c1.15-3.83,3-4,8-4s14-4,19-2,6,9,3,11Z"/><path class="cls-19" d="m599.62,520.86c0,3-3,2-6,4s-15,8-11-4c.89-2.68,17-3,17,0Z"/><path class="cls-19" d="m525.62,544.86c-4,3-7,0-11,0s-16,5-16,0,1-9,4-9c3.61,0,15-5,19-2s8,8,4,11Z"/><path class="cls-19" d="m697.62,512.86c-5,2-19,6-25,5s-20-1-14-9,8-2,11-2,8-3,8-3c9-3,9-13,17-10s8,17,3,19Z"/><path class="cls-19" d="m669.62,459.86c-1,2,0,4,0,6s-3,3-6,3-10,0-10-2-1-5,0-6c2.92-2.92,5-4,7-4s10,1,9,3Z"/><path class="cls-19" d="m714.62,422.86c-3,0-.34,3.89-2,5-3,2-12,2-17,2s-11.86.42-13-3c-1-3,18-7,21-7s4-2,7-3c3.42-1.14,6-2,9,1s-.88,5-5,5Z"/><path class="cls-19" d="m767.62,449.86c-13-2-9,8-17,5s-5-9-5-9c3-4,17,1,21-2s17-8,20-2-6,10-19,8Z"/><path class="cls-19" d="m816.62,403.86c-7,3-3,5-9,7s-33-2-32-6,6-6,19-7c5.08-.39,19-9,24-7s5,10-2,13Z"/><path class="cls-19" d="m838.62,376.86c-5,0-3.66-7.41,2-6,4,1,3,6-2,6Z"/><path class="cls-19" d="m838.62,439.86c0,3-7,0-9.69-.82-2.69-.81-.97-11.01,4.69-8.18,4,2,5,6,5,9Z"/></g><g id="Baguet"><path class="cls-9" d="m1626.62,432.82c-25,27-147,65-460,107-309.43,41.52-363.37,42.98-409.18,11.56-.27-.18-.55-.37-.82-.56-46-32,11-98,87-109,32.31-4.68,47.81-6.82,54.96-7.74,9.66-1.25,4.04-.26,4.04-.26,0,0,55-5,72-15,0,0,97-18,104-13s89-5,91-9,103-24,110-20c6.91,3.95,81.94-7.68,86.84-12.79.06-.07.11-.14.16-.21.03-.04.05-.07.08-.11,4.08-5.05,79.97-15.87,85.92-12.89,6,3,73-1,82-4s74-4,91,17c6.36,7.86,9.92,17.53,11.2,27.29,2.15,16.34-2.08,32.93-10.2,41.71Z"/><path class="cls-4" d="m974.62,418.82s-41,83-101,86,24.96-70.74,24.96-70.74c9.66-1.25,4.04-.26,4.04-.26,0,0,55-5,72-15Z"/><path class="cls-4" d="m1169.62,396.82c-3,17-102,106-125,85s34-76,34-76c7,5,89-5,91-9Z"/><path class="cls-4" d="m1366.46,364.03c-65.92,90.8-115.84,96.79-115.84,96.79,0,0-20,15-20-17s49-67,49-67c6.91,3.95,81.94-7.68,86.84-12.79Z"/><path class="cls-4" d="m1534.62,346.82c-2,13-105,99-124,86s42-82,42-82c6,3,73-1,82-4Z"/><path class="cls-5" d="m1626.62,432.82c-25,27-147,65-460,107-309.43,41.52-363.37,42.98-409.18,11.56,165.41,11.26,178.46,2.11,414.18-31.56,378.58-54.08,435-99,447-106,10-5.83,16.36-18.62,18.2-22.71,2.15,16.34-2.08,32.93-10.2,41.71Z"/></g><g id="oliven"><ellipse class="cls-14" cx="1600.55" cy="476.38" rx="28.47" ry="24.73" transform="translate(-66.81 383.63) rotate(-13.39)"/><ellipse class="cls-12" cx="1613.78" cy="472.53" rx="9.05" ry="12.02" transform="translate(-65.56 386.59) rotate(-13.39)"/><ellipse class="cls-21" cx="1615.02" cy="472.23" rx="7.5" ry="10.5" transform="translate(-65.46 386.87) rotate(-13.39)"/></g><g id="oliven-2"><ellipse class="cls-16" cx="1643.55" cy="491.38" rx="28.47" ry="24.73" transform="translate(357.92 1627.11) rotate(-58.1)"/><ellipse class="cls-12" cx="1636.86" cy="503.43" rx="9.05" ry="12.02" transform="translate(344.54 1627.11) rotate(-58.1)"/><ellipse class="cls-21" cx="1636.19" cy="504.51" rx="7.5" ry="10.5" transform="translate(343.31 1627.05) rotate(-58.1)"/></g><g id="kød"><path class="cls-8" d="m1643.62,556.82v44.2c0,5.03-1.4,9.96-4.08,14.21-8.89,14.11-33.93,45.06-90.51,63.17-75,24-144.41-6.58-152.41-10.58-60.16-30.08-95.96-41.79-145.77-109.73-3.4-4.64-5.4-10.18-5.73-15.92l-2.74-47.28c1.22,6.46,3.74,10.43,3.74,10.43,29.5,41.5,112.26,92.38,174.5,123.5,8,4,51.5,26.5,126.5,2.5s93.5-61.5,96-72c.11-.44.28-1.3.41-2.53l.09.03Z"/><path class="cls-10" d="m1643.53,556.79c-.13,1.23-.3,2.09-.41,2.53-2.5,10.5-21,48-96,72s-118.5,1.5-126.5-2.5c-62.24-31.12-145-82-174.5-123.5,0,0-2.52-3.97-3.74-10.43l-.56-9.64h0c.08-1.12.21-2.26.41-3.43,1.72-10.38,8.26-23.03,25.89-35.5,41-29,110-11,110-11,0,0,51,24,73,24s110,15,154,41c38.39,22.69,39.34,48.09,38.41,56.47Z"/><path class="cls-7" d="m1290.62,523.82s-41-17-28-50c10.58-26.86,64.23-27.22,83.82-26.42,2.06.08,2.78,2.77,1.04,3.87-8.34,5.29-20.91,15.92-8.86,26.56,17,15,51,27,46,36s-22,9-50,6-39,8-44,4Z"/><path class="cls-7" d="m1419.62,464.82s13,5,18,4,20,0,22,3,1,18,6,22,10,9,8,14-18,5-24,7-13,9-28,6-20-5-25-15-39-26-40-28-10-12,4-22,45,2,59,9Z"/><path class="cls-7" d="m1374.62,590.82s-82-35-77-49,35-11,41-9,26,9,33,6,28-14,53-7,47.05,20.57,46,30-6,19-19,25c-17.13,7.91-75,9-77,4Z"/><path class="cls-7" d="m1414.09,610.38c-1.26-.83-.81-2.78.68-2.99,10.71-1.52,45.58-6.98,54.85-14.57,11-9,15-12,30-10s30,11,28,21-9,27-35,27c-22.91,0-67.56-13.2-78.53-20.44Z"/><path class="cls-7" d="m1488.62,558.82s12-9,31,1,19,12,46,12,44-10,52-11,9,2,9,6-21,23-28,27-45,32-54,24c-6.43-5.72-3.47-19.17-5-23-2-5-11-12-17-15s-46-3-34-21Z"/><path class="cls-7" d="m1478.29,488.31c-1.34-2.06-1.4-4.72-.13-6.82,2.09-3.47,7.01-7.48,18.46-5.67,19,3,59,11,74,17,16.74,6.7,50.61,26.26,53,37,2,9-5,28-31,33s-55-3-70-10-25-14-37-15-32,3-30-6,25.77-5.07,28-16c2.09-10.21,2.02-16.18-5.33-27.52Z"/></g><g id="oliven-3"><ellipse class="cls-14" cx="309.95" cy="522.38" rx="24.73" ry="28.47" transform="translate(-229.22 242.66) rotate(-31.9)"/><ellipse class="cls-12" cx="316.64" cy="534.43" rx="12.02" ry="9.05" transform="translate(-234.58 248.01) rotate(-31.9)"/><ellipse class="cls-21" cx="317.31" cy="535.51" rx="10.5" ry="7.5" transform="translate(-235.05 248.53) rotate(-31.9)"/></g><g id="oliven-4"><ellipse class="cls-16" cx="157.95" cy="475.38" rx="24.73" ry="28.47" transform="translate(-338.32 407.17) rotate(-63.79)"/><ellipse class="cls-12" cx="170" cy="482.07" rx="12.02" ry="9.05" transform="translate(-337.6 421.71) rotate(-63.79)"/><ellipse class="cls-21" cx="171.14" cy="482.64" rx="10.5" ry="7.5" transform="translate(-337.46 423.05) rotate(-63.79)"/></g><g id="oliven-5"><ellipse class="cls-14" cx="420.95" cy="512.38" rx="24.73" ry="28.47" transform="translate(-137.01 870.72) rotate(-83.3)"/><ellipse class="cls-12" cx="407.37" cy="510.1" rx="12.02" ry="9.05" transform="translate(-146.75 855.21) rotate(-83.3)"/><ellipse class="cls-21" cx="406.1" cy="509.95" rx="10.5" ry="7.5" transform="translate(-147.72 853.82) rotate(-83.3)"/></g><g id="oliven-6"><ellipse class="cls-14" cx="1235.95" cy="326.38" rx="24.73" ry="28.47" transform="translate(767.69 1515.85) rotate(-83.3)"/></g><g id="oliven-7"><ellipse class="cls-16" cx="328.24" cy="540.17" rx="28.47" ry="24.73" transform="translate(-285.82 390.31) rotate(-45)"/><ellipse class="cls-12" cx="318.02" cy="549.42" rx="9.05" ry="12.02" transform="translate(-295.35 385.8) rotate(-45)"/><ellipse class="cls-21" cx="317.12" cy="550.32" rx="7.5" ry="10.5" transform="translate(-296.25 385.42) rotate(-45)"/></g><g id="oliven-8"><ellipse class="cls-16" cx="387.95" cy="518.38" rx="24.73" ry="28.47" transform="translate(-215.33 283.27) rotate(-31.9)"/><ellipse class="cls-12" cx="394.64" cy="530.43" rx="12.02" ry="9.05" transform="translate(-220.68 288.62) rotate(-31.9)"/><ellipse class="cls-21" cx="395.31" cy="531.51" rx="10.5" ry="7.5" transform="translate(-221.15 289.14) rotate(-31.9)"/></g><g id="oliven-9"><ellipse class="cls-16" cx="1164.95" cy="316.38" rx="24.73" ry="28.47" transform="translate(8.73 663.33) rotate(-31.9)"/><ellipse class="cls-12" cx="1171.64" cy="328.43" rx="12.02" ry="9.05" transform="translate(3.38 668.68) rotate(-31.9)"/><ellipse class="cls-21" cx="1172.31" cy="329.51" rx="10.5" ry="7.5" transform="translate(2.91 669.2) rotate(-31.9)"/></g><g id="oliven-10"><ellipse class="cls-16" cx="1216.95" cy="350.38" rx="28.47" ry="24.73" transform="translate(-49.43 355.54) rotate(-16.3)"/><ellipse class="cls-12" cx="1203.55" cy="353.58" rx="9.05" ry="12.02" transform="translate(-50.86 351.91) rotate(-16.3)"/><ellipse class="cls-21" cx="1202.33" cy="353.94" rx="7.5" ry="10.5" transform="translate(-51.01 351.58) rotate(-16.3)"/></g></svg>